<svg width="528" height="480" viewBox="0 0 528 480" fill="none" xmlns="http://www.w3.org/2000/svg">
<mask id="mask0_9765_10" style="mask-type:alpha" maskUnits="userSpaceOnUse" x="0" y="0" width="528" height="480">
<path fill-rule="evenodd" clip-rule="evenodd" d="M0 0H528V480H0V0Z" fill="white" />
</mask>
<g mask="url(#mask0_9765_10)">
<path fill-rule="evenodd" clip-rule="evenodd" d="M549.371 495.614C550.401 494.843 551.423 494.063 552.438 493.273C551.531 494.186 550.5 494.974 549.371 495.614ZM425.5 325.52C393.661 325.52 368 299.858 368 268.02C368 236.181 393.661 210.52 425.5 210.52C457.339 210.52 483 236.181 483 268.02C483 299.858 457.339 325.52 425.5 325.52ZM397 269.02C397 252.577 410.057 239.52 426.5 239.52C442.943 239.52 456 252.577 456 269.02C456 285.462 442.943 298.52 426.5 298.52C410.057 298.52 397 285.462 397 269.02Z" fill="none" stroke="#F9FAFF" stroke-width="8px"/>
<path fill-rule="evenodd" clip-rule="evenodd" d="M426.5 536.52C313.236 536.52 221 444.283 221 331.02C221 217.756 313.236 125.52 426.5 125.52C539.764 125.52 632 217.756 632 331.02C632 396.881 600.812 455.633 552.438 493.273C551.423 494.063 550.401 494.843 549.371 495.614C515.07 521.292 472.521 536.52 426.5 536.52ZM426.5 507.52C389.091 507.52 354.361 495.818 325.779 475.883C325.771 475.262 325.771 474.657 325.771 474.052V469.747C326.728 413.779 373.166 369.291 429.178 370.726C485.19 371.683 529.712 418.084 528.276 474.052C528.276 474.412 528.265 474.783 528.247 475.162C499.471 495.536 464.357 507.52 426.5 507.52ZM555.44 451.42C584.927 419.862 603 377.509 603 331.02C603 233.706 523.814 154.52 426.5 154.52C329.186 154.52 250 233.706 250 331.02C250 377.896 268.375 420.567 298.299 452.206C307.098 390.631 359.589 342.833 424.39 341.546C490.17 340.232 545.506 387.887 555.44 451.42ZM425.5 325.52C393.661 325.52 368 299.858 368 268.02C368 236.181 393.661 210.52 425.5 210.52C457.339 210.52 483 236.181 483 268.02C483 299.858 457.339 325.52 425.5 325.52ZM397 269.02C397 252.577 410.057 239.52 426.5 239.52C442.943 239.52 456 252.577 456 269.02C456 285.462 442.943 298.52 426.5 298.52C410.057 298.52 397 285.462 397 269.02Z" fill="none" stroke="#F9FAFF" stroke-width="8px" />
</g>
</svg>
